<svg width="1024" height="1024" xmlns="http://www.w3.org/2000/svg">

 <g>
  <title>background</title>
  <rect fill="none" id="canvas_background" height="402" width="582" y="-1" x="-1"/>
 </g>
 <g>
  <title>Layer 1</title>
  <path d="m850.2,645.6l2.3,-4.9l20.8,-26.1l0.6,-0.4l4.1,-3.3l11.4,-1.4l18.1,-8.4l8.7,-3.1l5.2,-3.8l2.7,-15.8l-0.5,-8.2l-4.3,-9.6l-5.9,-8.4l-8,-4.8l-7.2,-4.3l-11.6,-13.6l-3.7,-2.8l3.2,-3.6l3.9,-8.5l1,-22l3.2,-12.2l0.9,-3.2l1.1,-14.2l12.4,-5.5l3,-4.8l1.2,-12.3l-1.7,-2.5l-8.5,-12.4l-1.5,-7l0,-0.4l3.5,-15l3.3,-7.4l-10.3,-2.9l-17.8,-1.4l-7.9,1.4l-9.7,6.5l-4.6,5.9l-13,-5.4l-1.5,-12.1l1.5,-9.1l-1.2,-2.5l-4.5,-9l-2.1,-3.1l-3.8,-5.2l-9.1,-7.3l-7.7,-2.3l-10.6,1.7l-6,-3.6l-6.6,-10.5l2.6,-13.4l-7.4,-9l-4.2,0.2l-12.8,-3.9l-13.7,-25l-12.9,-10.6l-6,-7.2l8.3,-3.5l4.4,-7.1l-10.4,-0.3l-8.6,1.8l-7.4,-1.6l-6,-2.9l-3.2,-1.4l-0.1,-0.1l-8.9,-11.1l-3.6,-13.2l1.2,-24.1l30.9,4.5l7.4,-40.1l-10.6,-18.6l2,-17.8l-5.6,-10l-4.8,-5.2l-8.3,-4l-10,-1.2l-10.7,-3.1l-5.6,8.2l-31.1,2l-8.4,5.7l-15.2,16l-13.9,10.6l-5.2,1.3l-8.5,-6l3.4,-14.7l-0.4,-10.8l-10.2,-13.1l-30.7,-2.5l-3.9,-4.4l-12.3,-7.9l-26.1,-4.9l-11.5,-18.8l-9.6,8.1l-7.8,12.7l-25.8,-1.2l-21.1,37l-11,29.3l-1.5,0l-9.7,0.5l-9.5,-1.8l-20,2.6l-27.2,-8.2l-10.2,-0.2l-6.6,4.1l-10.3,19.8l-5.2,1.2l-15.4,-12.8l-4.7,2.3l-4.3,18.9l-12.5,3.9l-9.4,-6l-8.8,21l-0.3,10.5l8.6,15.8l-1.4,11l-0.3,2.5l2,17.2l3.9,8.4l-6,10.8l-8.6,15.4l14.5,16.3l4.4,8.4l-2.2,9.4l2,9.4l-16.6,35.4l15.3,13.9l5.7,8.4l-1,8.9l-7.3,11.6l-3.1,11.2l-4.3,8.2l1.5,10.7l0.2,1.2l-7.8,3.5l-21,0.6l-11.1,9.1l-10,21.8l0.9,7.4l24.6,29.9l-13.5,15.1l-3.8,1l-21,-17.8l-10.4,-0.6l-11.3,9l-5.9,-0.1l-25.3,-10l-30.2,63.8l-10.7,18.4l-7.7,3.8l-24.7,-3.3l-4.1,16.2l6,47.4l30.5,18.1l3.6,11l8,7.8l19,18.2l4.8,8.4l-9.9,17.4l8.7,10.3l12.3,-3.6l11.6,-8.6l6.2,-2.8l17.8,6l23.4,-7.2l17.1,6.6l18.4,5.2l39.9,-24.4l12.9,7.5l22.2,8.3l24.6,10.8l9,-6.3l1.2,-11.1l-10.1,-8.9l-10.8,-6.7l-3.4,-8.9l7.3,-9.2l7.8,-0.9l1.8,-0.2l15,18l6.5,0.3l21.7,10l13.2,17.8l11.4,7.3l13.2,3.1l17.7,-11.9l8.2,1l20.9,17.8l0.5,0.4l6.7,10.3l21,15.6l5.9,6.1l0.7,0.8l-7.8,19.6l-3.5,12.1l1.6,11.2l5.1,8.6l3.8,15.9l5.7,13.3l8.9,14.8l9.2,6.2l12.1,1.3l17.9,6.2l15,14.2l3.6,13.1l17.9,24.4l22.7,-6.4l25.7,0.6l17.5,-1l15.6,-3.8l12.4,-5.5l29.9,-17.3l4.5,-8.8l2.3,-14.7l-1.2,-10.8l-5.2,-11.5l-10.7,-11.1l-10.9,-1.9l-0.9,-6.9l0.3,-0.9l3.2,-9.7l7.4,-9.8l0.9,-1.1l7.3,-7l10,-8.7l18.5,-1.1l10.2,-5l15.2,-12.5l3.5,-2.8l11.3,-1.7l12.6,3.9l8,4.8l8.8,5.2l7.6,2.2l9.7,-0.7l13.2,-6.7l11.5,-8.5l8.4,-7.3l4.1,-8.8l9,-4.8l5.3,4.1l-1.1,-12.5l-4.3,-9.4l-5.5,-6.5l-7.9,-12.6l-6,-9.6l-10.5,-10.8l-6.7,-4.3l-12,-13l-12.6,-20.2l-1.9,-10.4l0.1,-3.4l0.5,-20.6z" stroke-miterlimit="10" stroke-linejoin="round" stroke-linecap="round" stroke-width="2.4" stroke="#A71E22" fill="#EAE5A6" id="XMLID_19_"/>
  <g id="points" display="none">
   <circle r="10" cy="216.8" cx="354.1" stroke-miterlimit="10" stroke-linejoin="round" stroke-linecap="round" stroke-width="2.4" stroke="#27AAE1" fill="#27AAE1" id="DTU"/>
   <circle r="10" cy="721.7" cx="943.9" stroke-miterlimit="10" stroke-linejoin="round" stroke-linecap="round" stroke-width="2.4" stroke="#27AAE1" fill="#27AAE1" id="Noida"/>
   <circle r="10" cy="692.7" cx="656.6" stroke-miterlimit="10" stroke-linejoin="round" stroke-linecap="round" stroke-width="2.4" stroke="#27AAE1" fill="#27AAE1" id="Saket"/>
   <circle r="10" cy="791.3" cx="422.9" stroke-miterlimit="10" stroke-linejoin="round" stroke-linecap="round" stroke-width="2.4" stroke="#27AAE1" fill="#27AAE1" id="Gurgoan"/>
   <circle r="10" cy="636.9" cx="412.9" stroke-miterlimit="10" stroke-linejoin="round" stroke-linecap="round" stroke-width="2.4" stroke="#27AAE1" fill="#27AAE1" id="HKV"/>
   <circle r="10" cy="491.8" cx="484.3" stroke-miterlimit="10" stroke-linejoin="round" stroke-linecap="round" stroke-width="2.4" stroke="#27AAE1" fill="#27AAE1" id="South Ex"/>
   <circle r="10" cy="421.7" cx="546.5" stroke-miterlimit="10" stroke-linejoin="round" stroke-linecap="round" stroke-width="2.4" stroke="#27AAE1" fill="#27AAE1" id="JLN"/>
   <circle r="10" cy="341.3" cx="432.9" stroke-miterlimit="10" stroke-linejoin="round" stroke-linecap="round" stroke-width="2.4" stroke="#27AAE1" fill="#27AAE1" id="Parliament Street"/>
   <circle r="10" cy="273.6" cx="474.3" stroke-miterlimit="10" stroke-linejoin="round" stroke-linecap="round" stroke-width="2.4" stroke="#27AAE1" fill="#27AAE1" id="CP"/>
  </g>
  <g id="camera-path" display="none">
   <path d="m354.1,216.8l120.3,56.8m-41.5,67.7l41.4,-67.7m-41.4,67.7l113.6,80.4m-62.2,70.1l62.2,-70.1m-62.2,70.1l-71.4,145.1m0,0l10,154.4m233.7,-98.6l-233.7,98.6m233.7,-98.6l287.3,29" stroke-miterlimit="10" stroke-linejoin="round" stroke-linecap="round" stroke-width="2.4" stroke="#27AAE1" fill="none" id="XMLID_18_"/>
  </g>
  <g id="trail-path" display="none">
   <path d="m349,223.2c17.2,46.5 74.6,72.6 120.9,54.2c-0.6,-1.5 -1.3,-3 -1.9,-4.6c-9.4,5.4 -18,12.1 -25.3,20.1c-6.6,7.1 -13.3,15.6 -15.4,25.4c-4.4,21 16.5,32.6 33.5,37.3c22.4,6.2 45,13.3 63.2,28.5c7.6,6.3 14.6,14.6 16.5,24.6c1.6,8.8 -0.9,19.3 -8,25.1c-7.8,6.4 -19,3.7 -27.2,9.8c-7.4,5.6 -12.1,14.6 -15.7,22.9c-7.6,17.3 -10.9,36.1 -14.1,54.7c-3.3,19.1 -6.5,38.7 -15,56.2c-8.2,17 -22,28.6 -35.3,41.5c-11.5,11.2 -22.6,24.5 -22.4,41.4c0.1,5.9 1.5,11.7 -1.5,17.1c-2.5,4.5 -6.6,7.7 -10.1,11.3c-5.7,6 -9.2,13 -10.2,21.2c-2.2,19.3 7.4,38 5.2,57.3c-0.9,8.1 -5,17.7 2.2,24.2c7,6.3 20.5,5.4 29.2,5.6c25.1,0.5 50,-3.7 74.4,-8.7c11.2,-2.3 23.2,-4 33.9,-8.1c10.4,-4 17.7,-12.2 26.8,-18.3c31.8,-21.1 81,-18.9 101.6,-55.8c2.2,-3.9 3.7,-8.1 4.8,-12.4c0.5,-1.9 0.8,-3.8 1.5,-5.6c1.7,-4.4 5.3,-5.8 9.7,-6.6c12.2,-2.1 25,-2.1 37.3,-1.4c25.6,1.4 50.7,6.7 75.8,11.9c25,5.2 50,10.4 74.9,15.9c24.9,5.6 49.6,12.1 74.3,18.3c6.5,1.6 14.4,2.5 18.4,-4c1.7,-2.7 -2.6,-5.3 -4.3,-2.5c-2.6,4.2 -8.8,2.7 -12.8,1.7c-6.3,-1.6 -12.6,-3.4 -19,-5c-12,-3.1 -24.1,-6.1 -36.2,-8.9c-23.6,-5.5 -47.3,-10.6 -71,-15.5c-24.1,-5 -48.2,-10.5 -72.6,-14.1c-11.4,-1.6 -22.8,-2.8 -34.2,-3.1c-11,-0.3 -22.7,-0.3 -33.5,2.1c-10,2.2 -11.3,9.5 -13.8,18.1c-2.7,9.2 -8.6,16.9 -15.8,23c-15.2,12.9 -34.6,18.2 -53.1,24.3c-9.6,3.1 -19.2,6.6 -28.1,11.4c-9.6,5.2 -17,13.4 -26.4,18.9c-9.7,5.7 -21.9,7.1 -32.7,9.4c-11.9,2.5 -23.7,4.9 -35.7,6.7c-12.7,1.9 -25.4,3.2 -38.2,3.3c-5.8,0 -11.7,-0.1 -17.5,-0.6c-5.6,-0.5 -14.2,-0.6 -16.3,-7.1c-1.6,-4.7 0.7,-10.3 1.4,-15c0.6,-4.4 0.7,-8.8 0.3,-13.2c-0.7,-9.1 -2.8,-18 -4.3,-26.9c-1.5,-9.3 -2.6,-19.6 1.5,-28.5c3.8,-8.2 12.1,-12.7 16.7,-20.3c5.1,-8.5 1.3,-18.1 3.1,-27.3c1.6,-8.1 6.2,-15.3 11.5,-21.5c11,-12.9 25.1,-22.9 35.4,-36.4c11,-14.4 16.7,-31.8 20.5,-49.3c4,-18.3 6.1,-37.1 10.8,-55.3c2.4,-9.3 5.4,-18.5 9.8,-27.1c4.8,-9.4 10.5,-18 21.5,-20c8.5,-1.5 15.8,-2.8 21.4,-9.9c4.6,-5.8 6.7,-13.4 6.6,-20.7c-0.5,-18.2 -15.3,-31.7 -29.7,-40.7c-8.9,-5.6 -18.5,-10.3 -28.3,-14c-10.7,-4 -21.9,-6 -32.7,-9.7c-9.9,-3.4 -20.5,-9.9 -23,-20.9c-2.6,-11.5 6.2,-22.7 13.5,-30.7c7.2,-7.9 15.6,-14.6 24.9,-19.9c2.4,-1.4 0.8,-5.6 -1.9,-4.6c-43.6,17.3 -98.4,-6.5 -114.7,-50.7c-1.4,-2.8 -6.2,-1.5 -5.1,1.5l0,0z" fill="#27AAE1" id="XMLID_42_"/>
  </g>
 </g>
</svg>