<?xml version="1.0" encoding="utf-8"?>
<!-- Generator: Adobe Illustrator 19.0.0, SVG Export Plug-In . SVG Version: 6.00 Build 0)  -->
<svg version="1.1" id="Layer_1" xmlns="http://www.w3.org/2000/svg" xmlns:xlink="http://www.w3.org/1999/xlink" x="0px" y="0px"
	 viewBox="0 0 1024 1024" enable-background="new 0 0 1024 1024" xml:space="preserve">
<path id="XMLID_19_" fill="#EAE5A6" stroke="#A71E22" stroke-width="2.4" stroke-linecap="round" stroke-linejoin="round" stroke-miterlimit="10" d="
	M850.2,645.6l2.3-4.9l20.8-26.1l0.6-0.4l4.1-3.3l11.4-1.4l18.1-8.4l8.7-3.1l5.2-3.8l2.7-15.8l-0.5-8.2l-4.3-9.6l-5.9-8.4l-8-4.8
	l-7.2-4.3l-11.6-13.6l-3.7-2.8l3.2-3.6l3.9-8.5l1-22l3.2-12.2l0.9-3.2l1.1-14.2l12.4-5.5l3-4.8l1.2-12.3l-1.7-2.5l-8.5-12.4l-1.5-7
	v-0.4l3.5-15l3.3-7.4l-10.3-2.9l-17.8-1.4l-7.9,1.4l-9.7,6.5l-4.6,5.9l-13-5.4l-1.5-12.1l1.5-9.1l-1.2-2.5l-4.5-9l-2.1-3.1l-3.8-5.2
	l-9.1-7.3l-7.7-2.3l-10.6,1.7l-6-3.6l-6.6-10.5l2.6-13.4l-7.4-9l-4.2,0.2l-12.8-3.9l-13.7-25l-12.9-10.6l-6-7.2l8.3-3.5l4.4-7.1
	l-10.4-0.3l-8.6,1.8l-7.4-1.6l-6-2.9l-3.2-1.4l-0.1-0.1l-8.9-11.1l-3.6-13.2l1.2-24.1l30.9,4.5l7.4-40.1L732,150.2l2-17.8l-5.6-10
	l-4.8-5.2l-8.3-4l-10-1.2l-10.7-3.1l-5.6,8.2l-31.1,2l-8.4,5.7l-15.2,16l-13.9,10.6l-5.2,1.3l-8.5-6l3.4-14.7l-0.4-10.8l-10.2-13.1
	l-30.7-2.5l-3.9-4.4l-12.3-7.9l-26.1-4.9l-11.5-18.8l-9.6,8.1l-7.8,12.7l-25.8-1.2l-21.1,37l-11,29.3h-1.5l-9.7,0.5l-9.5-1.8
	l-20,2.6l-27.2-8.2l-10.2-0.2l-6.6,4.1l-10.3,19.8l-5.2,1.2l-15.4-12.8l-4.7,2.3l-4.3,18.9l-12.5,3.9l-9.4-6l-8.8,21l-0.3,10.5
	l8.6,15.8l-1.4,11l-0.3,2.5l2,17.2l3.9,8.4l-6,10.8l-8.6,15.4l14.5,16.3l4.4,8.4l-2.2,9.4l2,9.4l-16.6,35.4l15.3,13.9l5.7,8.4
	l-1,8.9l-7.3,11.6l-3.1,11.2l-4.3,8.2l1.5,10.7l0.2,1.2l-7.8,3.5l-21,0.6l-11.1,9.1l-10,21.8l0.9,7.4l24.6,29.9l-13.5,15.1l-3.8,1
	l-21-17.8l-10.4-0.6l-11.3,9l-5.9-0.1l-25.3-10l-30.2,63.8l-10.7,18.4l-7.7,3.8l-24.7-3.3l-4.1,16.2l6,47.4l30.5,18.1l3.6,11l8,7.8
	l19,18.2l4.8,8.4l-9.9,17.4l8.7,10.3l12.3-3.6l11.6-8.6l6.2-2.8l17.8,6l23.4-7.2l17.1,6.6l18.4,5.2l39.9-24.4l12.9,7.5l22.2,8.3
	l24.6,10.8l9-6.3l1.2-11.1l-10.1-8.9l-10.8-6.7l-3.4-8.9l7.3-9.2l7.8-0.9l1.8-0.2l15,18l6.5,0.3l21.7,10l13.2,17.8l11.4,7.3
	l13.2,3.1l17.7-11.9l8.2,1l20.9,17.8l0.5,0.4l6.7,10.3l21,15.6l5.9,6.1l0.7,0.8l-7.8,19.6l-3.5,12.1l1.6,11.2l5.1,8.6l3.8,15.9
	l5.7,13.3l8.9,14.8l9.2,6.2L576,897l17.9,6.2l15,14.2l3.6,13.1l17.9,24.4l22.7-6.4l25.7,0.6l17.5-1l15.6-3.8l12.4-5.5l29.9-17.3
	l4.5-8.8l2.3-14.7l-1.2-10.8l-5.2-11.5l-10.7-11.1l-10.9-1.9l-0.9-6.9l0.3-0.9l3.2-9.7l7.4-9.8l0.9-1.1l7.3-7l10-8.7l18.5-1.1
	l10.2-5l15.2-12.5l3.5-2.8l11.3-1.7l12.6,3.9l8,4.8l8.8,5.2l7.6,2.2l9.7-0.7l13.2-6.7l11.5-8.5l8.4-7.3l4.1-8.8l9-4.8l5.3,4.1
	l-1.1-12.5l-4.3-9.4l-5.5-6.5l-7.9-12.6l-6-9.6l-10.5-10.8l-6.7-4.3l-12-13L851.5,680l-1.9-10.4l0.1-3.4L850.2,645.6z"/>
<g id="points">
	
		<circle id="XMLID_2_" fill="#27AAE1" stroke="#27AAE1" stroke-width="2.4" stroke-linecap="round" stroke-linejoin="round" stroke-miterlimit="10" cx="354.1" cy="216.8" r="10"/>
	
		<circle id="XMLID_1_" fill="#27AAE1" stroke="#27AAE1" stroke-width="2.4" stroke-linecap="round" stroke-linejoin="round" stroke-miterlimit="10" cx="943.9" cy="721.7" r="10"/>
	
		<circle id="XMLID_3_" fill="#27AAE1" stroke="#27AAE1" stroke-width="2.4" stroke-linecap="round" stroke-linejoin="round" stroke-miterlimit="10" cx="656.6" cy="692.7" r="10"/>
	
		<circle id="XMLID_4_" fill="#27AAE1" stroke="#27AAE1" stroke-width="2.4" stroke-linecap="round" stroke-linejoin="round" stroke-miterlimit="10" cx="422.9" cy="791.3" r="10"/>
	
		<circle id="XMLID_5_" fill="#27AAE1" stroke="#27AAE1" stroke-width="2.4" stroke-linecap="round" stroke-linejoin="round" stroke-miterlimit="10" cx="412.9" cy="636.9" r="10"/>
	
		<circle id="XMLID_6_" fill="#27AAE1" stroke="#27AAE1" stroke-width="2.4" stroke-linecap="round" stroke-linejoin="round" stroke-miterlimit="10" cx="484.3" cy="491.8" r="10"/>
	
		<circle id="XMLID_7_" fill="#27AAE1" stroke="#27AAE1" stroke-width="2.4" stroke-linecap="round" stroke-linejoin="round" stroke-miterlimit="10" cx="546.5" cy="421.7" r="10"/>
	
		<circle id="XMLID_8_" fill="#27AAE1" stroke="#27AAE1" stroke-width="2.4" stroke-linecap="round" stroke-linejoin="round" stroke-miterlimit="10" cx="432.9" cy="341.3" r="10"/>
	
		<circle id="XMLID_9_" fill="#27AAE1" stroke="#27AAE1" stroke-width="2.4" stroke-linecap="round" stroke-linejoin="round" stroke-miterlimit="10" cx="474.3" cy="273.6" r="10"/>
</g>
<g id="camera-path">
	
		<path id="XMLID_18_" fill="none" stroke="#27AAE1" stroke-width="2.4" stroke-linecap="round" stroke-linejoin="round" stroke-miterlimit="10" d="
		M354.1,216.8l120.3,56.8 M432.9,341.3l41.4-67.7 M432.9,341.3l113.6,80.4 M484.3,491.8l62.2-70.1 M484.3,491.8l-71.4,145.1
		 M412.9,636.9l10,154.4 M656.6,692.7l-233.7,98.6 M656.6,692.7l287.3,29"/>
</g>
<g id="trail-path">
	
		<path id="XMLID_21_" fill="none" stroke="#27AAE1" stroke-width="3" stroke-linecap="round" stroke-linejoin="round" stroke-miterlimit="10" d="
		M948.9,721.1c-7.8,15.6-167.8-32.6-190.4-36.6c-21.5-3.8-66.8-16.5-87.4-5.6c-18.4,9.8-21.5,32.8-39.8,46.5
		c-21.4,16-50.5,18.5-73.7,31.4c-34.1,18.8-60.4,30.8-101.1,35.2c-25.1,2.7-56.8,9.6-69.8-12.8c-3.7-6.4-5.2-58.9-3.4-67.6
		c8.6-41.7,36.8-77.4,63.1-110.3c33.4-41.8,18.2-105.3,50.6-144.2c16-19.2,46.2-16.1,45.5-46c-0.7-28-37.1-42.2-58.3-51.2
		c-18.5-7.8-51.3-8.7-54.8-34.5c-2.8-20.5,25.1-42.2,39.9-50.6c-44.5,18.1-101.5-7.2-117.8-52.5"/>
</g>
</svg>
