<?xml version="1.0" encoding="utf-8"?>
<!-- Generator: Adobe Illustrator 19.0.0, SVG Export Plug-In . SVG Version: 6.00 Build 0)  -->
<svg version="1.1" id="Layer_1" xmlns="http://www.w3.org/2000/svg" xmlns:xlink="http://www.w3.org/1999/xlink" x="0px" y="0px"
	 viewBox="0 0 1024 1024" style="enable-background:new 0 0 1024 1024;" xml:space="preserve">
<style type="text/css">
	.st0{fill:#F4F0A2;}
	.st1{fill:none;stroke:#000000;stroke-miterlimit:10;}
	.st2{display:none;}
	.st3{display:inline;fill:none;stroke:#000000;stroke-miterlimit:10;}
	.st4{display:inline;stroke:#000000;stroke-miterlimit:10;}
</style>
<g id="layer6" transform="translate(936.3724,904.055)" inkscape:r_cx="true" inkscape:r_cy="true" inkscape:label="State Border" inkscape:groupmode="layer" sodipodi:insensitive="true">
	<g id="XMLID_8_">
		<path id="path6518_7_" class="st0" d="M-145.4-167.9c25.5-2.6,36.7,42.6,64.7,13.6c35.6-28.6,23.1-75.7-10.9-98.8
			c-32.4-16.4-53.4-66.6-15.8-89.1c30.2-6.6,73.3-33,33.1-62.5c-34-10.6-30.6-58.6-13.7-81c8.3-22.1-4.3-48.1,4.3-66.5
			c-27.8-19-64.6,45.5-62.2-7.7c1.1-35.4-61.7-14.4-43.5-56.7c-7.2-21.5-43.5-5.8-33.2-37.4c-5.1-30.1-49.4-34.3-50.3-68.9
			c27.5,1,52.2-23.5,24.1-45.8c-31.1,5.9-30.5-76.2-61.9-35.7c-10.2,25.4-54.4,47.2-46.5,2.1c3.2-39.2-26.2,6.6-41.7-17.8
			c-25-31-64.6-2.9-90.4,4.1c3,31.4-24.9,61-51.1,31.2c-23.4-0.4-42.2,5.9-41.6,31.8c-32.8-11.3-48.1,19.8-63.1,41.7
			c6.7,32.3,19.5,56.3,9.9,88.9c22.5,28.8-16.1,73,24.6,88.8c-8.3,25.7-11.6,66.5-49.1,56.5c-43.4,25.4,37.3,65,3.5,81.5
			c-18.6,0.1-29.3-46.6-44.9-11.5c-19-6.7-33.4-12.8-32.4,16.2c-23.1,22.4-19.4,60.5-57.5,55.5c-20.6,33.9,1.5,61.3,29.9,77.8
			c23.1,19.5,35.8,39.8,30.8,69.9c22.8,8.7,27-38.6,49.2-9.4c27.1-9.1,46.8,19.6,64.6-8.6c19.6-25.4,62.6,8.6,77.6-15.5
			c-1.4-13.9-34-39.2-1.4-33.1c22.4,23.1,57.4,70.7,91,38.5c19.1,6.4,36.8,13.8,31.7,32.4c50.2-1.2,16.5,52.5,22.6,78.6
			c11.9,19.7,14.2,49.8,44.1,38.6c36.4,1,9.8,64.9,53.7,55.9c32.8-4.4,64.7-6.4,92.7-24.1c30-30.1-8.3-53.7-19.3-77.5
			c9.2-28.9,41.5-35.2,63.3-54.5C-155.1-168.9-150.6-162.4-145.4-167.9z"/>
	</g>
	<g id="XMLID_6_">
		<path id="path6518_5_" class="st1" d="M-145.4-167.9c25.5-2.6,36.7,42.6,64.7,13.6c35.6-28.6,23.1-75.7-10.9-98.8
			c-32.4-16.4-53.4-66.6-15.8-89.1c30.2-6.6,73.3-33,33.1-62.5c-34-10.6-30.6-58.6-13.7-81c8.3-22.1-4.3-48.1,4.3-66.5
			c-27.8-19-64.6,45.5-62.2-7.7c1.1-35.4-61.7-14.4-43.5-56.7c-7.2-21.5-43.5-5.8-33.2-37.4c-5.1-30.1-49.4-34.3-50.3-68.9
			c27.5,1,52.2-23.5,24.1-45.8c-31.1,5.9-30.5-76.2-61.9-35.7c-10.2,25.4-54.4,47.2-46.5,2.1c3.2-39.2-26.2,6.6-41.7-17.8
			c-25-31-64.6-2.9-90.4,4.1c3,31.4-24.9,61-51.1,31.2c-23.4-0.4-42.2,5.9-41.6,31.8c-32.8-11.3-48.1,19.8-63.1,41.7
			c6.7,32.3,19.5,56.3,9.9,88.9c22.5,28.8-16.1,73,24.6,88.8c-8.3,25.7-11.6,66.5-49.1,56.5c-43.4,25.4,37.3,65,3.5,81.5
			c-18.6,0.1-29.3-46.6-44.9-11.5c-19-6.7-33.4-12.8-32.4,16.2c-23.1,22.4-19.4,60.5-57.5,55.5c-20.6,33.9,1.5,61.3,29.9,77.8
			c23.1,19.5,35.8,39.8,30.8,69.9c22.8,8.7,27-38.6,49.2-9.4c27.1-9.1,46.8,19.6,64.6-8.6c19.6-25.4,62.6,8.6,77.6-15.5
			c-1.4-13.9-34-39.2-1.4-33.1c22.4,23.1,57.4,70.7,91,38.5c19.1,6.4,36.8,13.8,31.7,32.4c50.2-1.2,16.5,52.5,22.6,78.6
			c11.9,19.7,14.2,49.8,44.1,38.6c36.4,1,9.8,64.9,53.7,55.9c32.8-4.4,64.7-6.4,92.7-24.1c30-30.1-8.3-53.7-19.3-77.5
			c9.2-28.9,41.5-35.2,63.3-54.5C-155.1-168.9-150.6-162.4-145.4-167.9z"/>
	</g>
</g>
<g id="trail-path" class="st2">
	<path id="XMLID_20_" class="st3" d="M377.9,196.4c40-21.3,94.8-8.6,121.3,28.1c1.5,2.1,3,4.3,3.3,6.9c1.1,7.8-8.1,12.8-15.8,14.6
		c-8.2,2-16.8,3.2-24.4,6.9c-7.6,3.7-14.4,10.7-15,19.1c-0.6,8.7,5.6,16.8,13.2,21.1s16.5,5.7,25.2,7.1c17,2.8,33.9,6.3,50.6,10.3
		c16.4,4,34.3,9.8,42.4,24.6c7.2,13,4.6,29,1.6,43.6c-1.2,5.8-2.5,11.9-6.1,16.6c-4.6,6-12,8.8-18.6,12.5
		c-21.9,12.4-35.2,35.7-44.7,59c-4.1,10.1-7.6,21.5-3.7,31.6c2.3,5.8,6.7,10.5,11.1,15c8.3,8.5,16.6,17,24.9,25.5
		c2.9,3,5.9,6.1,6.8,10.2c2.2,9.3-7.7,17.1-16.8,20c-21.7,6.8-48.6,2.8-64.2,19.3c8.6-1.2,17.7,3,22.2,10.4c3,4.9,4.1,10.8,4.8,16.6
		c4.6,36.9-0.9,75.1-15.9,109.2c-8.2,18.6-19.3,39-11.9,58c7.5,19.2,31.1,27,51.7,26.3c12.8-0.4,25.9-3.4,36-11.2
		c15.4-12,21.3-33.2,36.8-44.9c3.5-2.7,7.5-4.8,10.6-7.8c7.1-6.8,9.3-17.1,12.8-26.3c12-31.2,44.7-53.2,78.1-52.6
		c7.5,0.1,18.5-3,15.9-10c-2.3-0.5-0.9-1.6-3.3-1.6l-99.3,85.7"/>
</g>
<g id="camera-path" class="st2">
	<line id="XMLID_10_" class="st3" x1="383" y1="200.3" x2="494.7" y2="244.3"/>
	<line id="XMLID_11_" class="st3" x1="494.7" y1="244.3" x2="460.7" y2="296.7"/>
	<line id="XMLID_12_" class="st3" x1="460.7" y1="296.7" x2="572" y2="402"/>
	<line id="XMLID_15_" class="st3" x1="572" y1="402" x2="509.2" y2="504.7"/>
	<line id="XMLID_17_" class="st3" x1="509.2" y1="504.7" x2="494.7" y2="601"/>
	<line id="XMLID_18_" class="st3" x1="494.7" y1="601" x2="474.7" y2="761.2"/>
	<line id="XMLID_19_" class="st3" x1="474.7" y1="761.2" x2="611.5" y2="746.5"/>
</g>
<g id="points" class="st2">
	<circle id="DTU" class="st4" cx="383" cy="200.3" rx="7"/>
	<circle id="CP" class="st4" cx="494.7" cy="244.3" rx="7"/>
	<circle id="South_Ex" class="st4" cx="509.2" cy="504.7" rx="7"/>
	<circle id="Paarliamnet_Street" class="st4" cx="460.7" cy="296.7" rx="7"/>
	<circle id="JLN" class="st4" cx="572" cy="402" rx="7"/>
	<circle id="HKV" class="st4" cx="494.7" cy="601" rx="7"/>
	<circle id="Saket" class="st4" cx="611.5" cy="746.5" rx="7"/>
	<circle id="Noida" class="st4" cx="710.8" cy="660.8" rx="7"/>
	<circle id="Gurgoan" class="st4" cx="474.7" cy="761.2" rx="7"/>
</g>
</svg>
