<?xml version="1.0" encoding="utf-8"?>
<!-- Generator: Adobe Illustrator 19.0.0, SVG Export Plug-In . SVG Version: 6.00 Build 0)  -->
<svg version="1.1" id="Layer_1" xmlns="http://www.w3.org/2000/svg" xmlns:xlink="http://www.w3.org/1999/xlink" x="0px" y="0px"
	 viewBox="0 0 1024 1024" enable-background="new 0 0 1024 1024" xml:space="preserve">
<path id="XMLID_1_" d="M627.1,895c-16.7,0-19.9-14.3-23-28.1c-3.1-13.8-6.2-28.1-22.9-28.6c-23.2,8.6-30-7.1-37.3-23.8
	c-2.2-5.1-4.5-10.4-7.3-15l-0.1-0.1c-2-8.4,0.1-19.4,2.3-31c2.9-15.3,5.9-31.2-1.5-40c-4.3-5.1-11.8-7.5-22.9-7.2l-0.7,0l0.2-0.6
	c4.9-18-11.8-25.3-31.1-31.7c-7.9,7.4-16.4,11-25.3,10.8c-21.3-0.7-41.4-22.6-57.5-40.1c-3-3.3-5.9-6.4-8.6-9.2
	c-7.6-1.4-12.1-1.1-13.3,0.8c-1.7,2.6,2.3,8.5,6.6,14.7c4.1,6,8.4,12.2,8.9,17.2l0,0.2l-0.1,0.1c-7.5,12.1-21.7,9.9-36.7,7.6
	c-15.3-2.4-31.1-4.8-40.9,7.9c-10.6,16.8-21.9,13.7-34.9,10.2c-8.8-2.4-18.9-5.2-29.9-1.4l-0.3,0.1l-0.2-0.3
	c-4.7-6.2-8.9-9.3-12.7-9.4c-4.9-0.2-8.9,4.3-13.2,9c-5.9,6.6-12.7,14-23.1,10l-0.4-0.1l0.1-0.4c4.5-26.8-4.7-47.6-30.6-69.5
	c-14-8.1-31.8-22-36.8-41.6c-3.1-12-0.8-24.4,6.8-36.9l0.2-0.3l0.3,0c24.2,3.2,31.3-11.3,39.4-28.1c4.6-9.4,9.3-19.2,17.5-27.1
	c-0.3-10.8,1.4-17.2,5.5-20.2c5.6-4.1,15-0.8,25.8,3.1l1.4,0.5c3.7-8.1,7.4-12.3,11.3-12.9c5.3-0.8,10.2,5,15.3,11
	c5.6,6.6,11.5,13.4,18.4,13.4c4.4-2.2,7-4.8,7.8-8.1c1.8-6.9-4.5-15.7-11.1-25.1c-7.7-10.9-15.7-22.2-13.4-32.9
	c1.3-5.9,5.5-10.9,13-15.3l0.2-0.1l0.2,0.1c31.1,8.3,38.3-19,44.8-43c1.2-4.5,2.3-8.8,3.6-12.7c-22.8-9.1-20.6-27-18.3-46.1
	c1.8-14.9,3.7-30.2-6.1-42.7l-0.2-0.2l0.1-0.2c7.1-24.3,1.9-43.4-4.1-65.5c-2-7.4-4.1-15-5.8-23.1l0-0.2l0.1-0.2
	c1.7-2.5,3.4-5.1,5.2-7.8c13.5-20.6,28.8-43.9,57.8-34.3c-0.1-9.4,2.5-16.8,7.6-22c6.8-6.8,18-9.9,34.5-9.7l0.2,0l0.1,0.2
	c9.7,11,20.6,14.8,30.5,10.4c12.9-5.6,21.4-23.3,19.7-41.2l0-0.4l0.4-0.1c5.8-1.6,12.3-4.2,19.2-7c23.2-9.5,52.1-21.2,71.8,3.1
	c7.2,11.2,17.1,7.3,25.8,3.8c5.4-2.1,10-4,13.1-1.8c2.7,2,3.7,7.2,2.9,16.2c-2.5,14.4,0,23,7.3,25.1c11.4,3.3,31.8-11.3,38.3-27.4
	l0.1-0.1c6.3-8.2,11.8-11.9,16.7-11.5c7.3,0.7,12.3,10.6,17.6,21.1c7,14,14.3,28.4,27.9,25.9l0.2,0l0.2,0.1
	c10.8,8.5,14.9,18.3,11.5,27.5c-4.2,11.4-19.3,19.6-35.3,19.2c0.7,17.9,13.4,27.6,25.7,37c10.9,8.4,22.2,17,24.6,31.3l0,0.1l0,0.1
	c-2.2,6.8-2.4,11.7-0.5,15.2c2.4,4.5,8.1,6.1,14,7.8c7.7,2.2,16.5,4.7,19.7,14.2l0.1,0.2l-0.1,0.2c-3.5,8.1-4.2,14.4-2.1,19
	c3,6.6,11.3,9.4,20.1,12.2c12.8,4.2,26,8.5,25.5,25.3c-0.5,11.7,0.8,18.3,4.2,20.3c3.9,2.4,10.7-1.6,18.5-6.2
	c11.8-6.9,26.5-15.6,39.3-6.8l0.4,0.2l-0.2,0.4c-4.2,9-3.2,20-2.2,31.5c1,11.7,2.1,23.7-2.1,34.9l-0.1,0.1
	c-11.2,14.8-15.4,39.1-9.8,56.5c3.8,12,11.9,20.2,23.3,23.7l0.1,0.1c12.7,9.4,18.1,19.1,16,28.9c-3.9,18.2-31.6,30.6-49.3,34.5
	c-17,10.2-20.1,24.8-19.7,35.2c0.7,20.6,15.7,42.9,35.6,53c19.2,13.1,31.7,34,32.5,54.5c0.5,12.3-2.8,30.1-21.5,45.1
	c-16.9,17.6-27.8,8.4-39.4-1.4c-7.6-6.4-15.4-13-25.4-12.1c-3.1,3.2-6.1,2.4-9,1.6c-2.1-0.6-4.2-1.2-6.4-0.3
	c-7.6,6.7-16.5,11.9-25.1,16.9c-16.4,9.6-31.9,18.6-37.9,37.2c3,6.4,7.9,12.7,13,19.3c13.9,17.9,28.2,36.4,6.1,58.6l-0.1,0.1
	c-24.7,15.6-52.1,19-81.1,22.7c-3.9,0.5-7.9,1-11.9,1.5C632,894.7,629.4,895,627.1,895z M581.1,837.2L581.1,837.2
	c17.6,0.5,20.9,15.2,24,29.4c3.5,16,6.9,31.1,29.7,26.5c4-0.5,8-1,11.9-1.5c28.9-3.6,56.1-7,80.6-22.5c21.4-21.5,7.4-39.7-6.3-57.2
	c-5.2-6.8-10.2-13.1-13.2-19.7l-0.1-0.2l0.1-0.2c6.1-19.1,21.8-28.2,38.4-37.9c8.6-5,17.5-10.2,25-16.8l0.1-0.1
	c2.6-1.1,4.9-0.4,7.2,0.2c2.9,0.8,5.4,1.5,8.1-1.4l0.1-0.1l0.2,0c10.5-1.1,18.5,5.7,26.3,12.3c11.2,9.5,21.7,18.4,38.1,1.4
	c18.4-14.8,21.7-32.3,21.2-44.3c-0.8-20.2-13.1-40.8-32-53.7c-20.1-10.2-35.3-32.8-36.1-53.8c-0.4-10.7,2.8-25.7,20.3-36.2l0.2-0.1
	c21.1-4.6,45.3-18,48.6-33.7c2-9.4-3.3-18.8-15.6-27.9c-11.7-3.7-19.9-12.1-23.9-24.4c-5.7-17.6-1.4-42.3,9.9-57.4
	c4.1-10.9,3-22.9,2-34.4c-1-11.5-2-22.5,2.1-31.7c-12.3-8-26.5,0.4-37.9,7.1c-8.1,4.8-15.1,8.9-19.5,6.2c-3.7-2.2-5.2-9-4.6-21.2
	c0.5-16-12.4-20.2-24.8-24.3c-9-2.9-17.5-5.7-20.7-12.8c-2.2-4.9-1.5-11.3,2-19.6c-3.1-8.8-11.2-11.1-19-13.3
	c-6.2-1.7-12-3.4-14.6-8.3c-2-3.7-1.8-8.9,0.4-15.8c-2.4-13.8-13-21.9-24.2-30.6c-12.6-9.7-25.6-19.6-26.1-38.3l0-0.5l0.5,0
	c15.8,0.6,30.8-7.4,34.9-18.5c3.2-8.7-0.7-18-11-26.3c-1,0.2-2,0.3-3,0.3c-12.3,0-19.4-14.1-25.8-26.7c-5.2-10.2-10-19.9-16.8-20.5
	c-4.5-0.4-9.7,3.2-15.7,11c-6.8,16.8-27.4,31.4-39.4,27.9c-5.5-1.6-11.3-7.4-8-26.2c0.7-8.5-0.1-13.5-2.5-15.2
	c-2.6-1.9-7-0.2-12.1,1.9c-8.7,3.5-19.5,7.8-27-4.1c-19.1-23.6-46.5-12.5-70.6-2.7c-6.8,2.7-13.1,5.3-18.9,6.9
	c1.6,18.2-7.1,36.1-20.3,41.8c-10.4,4.5-21.6,0.7-31.5-10.5c-16.1-0.2-27,2.8-33.6,9.4c-5.1,5.1-7.5,12.5-7.3,22l0,0.7l-0.7-0.2
	c-28.7-9.9-43.9,13.3-57.3,33.7c-1.7,2.7-3.4,5.2-5.1,7.6c1.7,8,3.7,15.6,5.7,22.9c6.1,22.2,11.3,41.4,4.2,65.8
	c9.8,12.8,7.9,28.3,6.1,43.3c-2.3,18.8-4.4,36.5,18.1,45.2l0.4,0.2l-0.1,0.4c-1.3,4.1-2.5,8.5-3.7,13.1c-5.7,21.4-12.1,45.2-35,45.2
	c-3.3,0-6.8-0.5-10.8-1.5c-7.1,4.2-11.2,9-12.4,14.5c-2.2,10.2,5.6,21.4,13.2,32.1c6.7,9.6,13.1,18.6,11.2,25.9
	c-0.9,3.6-3.7,6.5-8.4,8.8l-0.2,0.1c0,0-0.1,0-0.1,0c-7.5,0-13.7-7.3-19.3-13.8c-5-5.9-9.7-11.4-14.4-10.7
	c-3.6,0.5-7.1,4.7-10.7,12.7l-0.2,0.4l-2.3-0.8c-10.5-3.7-19.6-7-24.8-3.2c-3.7,2.7-5.4,9.1-5,19.6l0,0.2l-0.2,0.2
	c-8.1,7.9-12.9,17.6-17.4,27c-8.3,17.1-15.5,31.8-40.2,28.7c-7.3,12.2-9.5,24.2-6.5,35.8c4.9,19.3,22.5,33,36.4,41.1
	c26.2,22.1,35.4,43,31.1,70c9.6,3.4,15.7-3.3,21.6-9.9c4.4-4.9,8.7-9.5,14-9.3c4.1,0.2,8.4,3.3,13.3,9.5c11.2-3.6,21.3-0.9,30.2,1.5
	c12.6,3.5,23.6,6.4,33.8-9.8c10.2-13.2,26.3-10.7,41.9-8.3c14.6,2.2,28.4,4.4,35.6-7c-0.6-4.7-4.9-11-8.7-16.6
	c-4.7-6.8-8.7-12.6-6.6-15.8c1.5-2.4,6.1-2.7,14.5-1.2l0.2,0l0.1,0.1c2.7,2.8,5.6,6,8.7,9.3c16,17.4,35.9,39.1,56.8,39.8
	c8.8,0.3,17.1-3.3,24.8-10.7l0.2-0.2l0.3,0.1c19.6,6.5,36.8,14,32.2,32.4c11-0.2,18.6,2.3,23,7.6c7.8,9.2,4.7,25.3,1.7,40.8
	c-2.1,10.9-4.2,22.3-2.4,30.5c2.8,4.7,5.1,10,7.4,15.1C552,830.3,558.6,845.6,581.1,837.2L581.1,837.2z"/>
<g id="trail-path" display="none">
	<path display="inline" fill="none" stroke="#000000" stroke-miterlimit="10" d="M377.9,196.4
		c40-21.3,94.8-8.6,121.3,28.1c1.5,2.1,3,4.3,3.3,6.9c1.1,7.8-8.1,12.8-15.8,14.6c-8.2,2-16.8,3.2-24.4,6.9
		c-7.6,3.7-14.4,10.7-15,19.1c-0.6,8.7,5.6,16.8,13.2,21.1s16.5,5.7,25.2,7.1c17,2.8,33.9,6.3,50.6,10.3c16.4,4,34.3,9.8,42.4,24.6
		c7.2,13,4.6,29,1.6,43.6c-1.2,5.8-2.5,11.9-6.1,16.6c-4.6,6-12,8.8-18.6,12.5c-21.9,12.4-35.2,35.7-44.7,59
		c-4.1,10.1-7.6,21.5-3.7,31.6c2.3,5.8,6.7,10.5,11.1,15c8.3,8.5,16.6,17,24.9,25.5c2.9,3,5.9,6.1,6.8,10.2
		c2.2,9.3-7.7,17.1-16.8,20c-21.7,6.8-48.6,2.8-64.2,19.3c8.6-1.2,17.7,3,22.2,10.4c3,4.9,4.1,10.8,4.8,16.6
		c4.6,36.9-0.9,75.1-15.9,109.2c-8.2,18.6-19.3,39-11.9,58c7.5,19.2,31.1,27,51.7,26.3c12.8-0.4,25.9-3.4,36-11.2
		c15.4-12,21.3-33.2,36.8-44.9c3.5-2.7,7.5-4.8,10.6-7.8c7.1-6.8,9.3-17.1,12.8-26.3c12-31.2,44.7-53.2,78.1-52.6
		c7.5,0.1,18.5-3,15.9-10c-2.3-0.5-0.9-1.6-3.3-1.6l-99.3,85.7"/>
</g>
<g id="camera-path" display="none">

		<line id="XMLID_10_" display="inline" fill="none" stroke="#000000" stroke-miterlimit="10" x1="383" y1="200.3" x2="494.7" y2="244.3"/>

		<line id="XMLID_11_" display="inline" fill="none" stroke="#000000" stroke-miterlimit="10" x1="494.7" y1="244.3" x2="460.7" y2="296.7"/>

		<line id="XMLID_12_" display="inline" fill="none" stroke="#000000" stroke-miterlimit="10" x1="460.7" y1="296.7" x2="572" y2="402"/>

		<line id="XMLID_15_" display="inline" fill="none" stroke="#000000" stroke-miterlimit="10" x1="572" y1="402" x2="509.2" y2="504.7"/>

		<line id="XMLID_17_" display="inline" fill="none" stroke="#000000" stroke-miterlimit="10" x1="509.2" y1="504.7" x2="494.7" y2="601"/>

		<line id="XMLID_18_" display="inline" fill="none" stroke="#000000" stroke-miterlimit="10" x1="494.7" y1="601" x2="474.7" y2="761.2"/>

		<line id="XMLID_19_" display="inline" fill="none" stroke="#000000" stroke-miterlimit="10" x1="474.7" y1="761.2" x2="611.5" y2="746.5"/>
</g>
<g id="points" display="none">
	<ellipse id="DTU" display="inline" stroke="#000000" stroke-miterlimit="10" cx="383" cy="200.3" rx="7" ry="7.3"/>
	<ellipse id="CP" display="inline" stroke="#000000" stroke-miterlimit="10" cx="494.7" cy="244.3" rx="7" ry="7.3"/>
	<ellipse id="South_Ex" display="inline" stroke="#000000" stroke-miterlimit="10" cx="509.2" cy="504.7" rx="7" ry="7.3"/>

		<ellipse id="Paarliamnet_Street" display="inline" stroke="#000000" stroke-miterlimit="10" cx="460.7" cy="296.7" rx="7" ry="7.3"/>
	<ellipse id="JLN" display="inline" stroke="#000000" stroke-miterlimit="10" cx="572" cy="402" rx="7" ry="7.3"/>
	<ellipse id="HKV" display="inline" stroke="#000000" stroke-miterlimit="10" cx="494.7" cy="601" rx="7" ry="7.3"/>
	<ellipse id="Saket" display="inline" stroke="#000000" stroke-miterlimit="10" cx="611.5" cy="746.5" rx="7" ry="7.3"/>
	<ellipse id="Noida" display="inline" stroke="#000000" stroke-miterlimit="10" cx="710.8" cy="660.8" rx="7" ry="7.3"/>
	<ellipse id="Gurgoan" display="inline" stroke="#000000" stroke-miterlimit="10" cx="474.7" cy="761.2" rx="7" ry="7.3"/>
</g>
</svg>
