<svg width="1024" height="1024" xmlns="http://www.w3.org/2000/svg">

 <g>
  <title>background</title>
  <rect fill="none" id="canvas_background" height="402" width="582" y="-1" x="-1"/>
 </g>
 <g>
  <title>Layer 1</title>
  <g id="Layer_5">
   <g id="XMLID_10_">
    <path d="m762.5,767.5c-21.7,19.3 -54.1,25.6 -63.3,54.5c11,23.9 49.3,47.4 19.3,77.5c-28,17.7 -59.9,19.7 -92.7,24.1c-43.9,9 -17.3,-54.9 -53.7,-55.9c-29.9,11.2 -32.2,-18.9 -44.1,-38.6c-6.1,-26 27.6,-79.8 -22.6,-78.6c5.1,-18.7 -12.5,-26 -31.7,-32.4c-33.7,32.2 -68.6,-15.4 -91,-38.5c-32.6,-6.1 0.1,19.2 1.4,33.1c-14.9,24 -58,-9.9 -77.6,15.5c-17.8,28.2 -37.5,-0.5 -64.6,8.6c-22.2,-29.2 -26.4,18.1 -49.2,9.4c5,-30.1 -7.7,-50.4 -30.8,-69.9c-28.4,-16.5 -50.4,-43.9 -29.9,-77.8c38.1,5 34.4,-33.2 57.5,-55.5c-1,-29 13.4,-22.9 32.4,-16.2c15.6,-35.1 26.3,11.6 44.9,11.5c33.8,-16.5 -46.9,-56 -3.5,-81.5c37.5,10 40.8,-30.8 49.1,-56.5c-40.7,-15.8 -2.1,-60 -24.6,-88.8c9.6,-32.6 -3.2,-56.6 -9.9,-88.9c15.1,-21.9 30.3,-53.1 63.1,-41.7c-0.6,-25.9 18.2,-32.2 41.6,-31.8c26.2,29.8 54.1,0.2 51.1,-31.2c25.8,-7 65.4,-35.1 90.4,-4.1c15.5,24.4 44.9,-21.4 41.7,17.8c-7.9,45.1 36.3,23.3 46.5,-2.1c31.3,-40.6 30.7,41.5 61.9,35.7c28.2,22.3 3.5,46.8 -24.1,45.8c0.9,34.6 45.2,38.8 50.3,68.9c-10.3,31.6 26,15.9 33.2,37.4c-18.3,42.3 44.6,21.2 43.5,56.7c-2.4,53.2 34.4,-11.2 62.2,7.7c-8.5,18.4 4,44.4 -4.3,66.5c-16.9,22.4 -20.3,70.4 13.7,81c40.1,29.5 -2.9,55.9 -33.1,62.5c-37.6,22.6 -16.5,72.7 15.8,89.1c34,23.1 46.5,70.1 10.9,98.8c-27.9,29 -39.2,-16.2 -64.7,-13.6c-4.8,5.7 -9.4,-0.9 -15.1,1.5z" fill="#EAE4A2" id="XMLID_5_"/>
    <path d="m618.1,925c-16.7,0 -19.9,-14.3 -23,-28.1c-3.1,-13.8 -6.2,-28.1 -22.9,-28.6c-23.2,8.6 -30,-7.1 -37.3,-23.8c-2.2,-5.1 -4.5,-10.4 -7.3,-15l-0.1,-0.1c-2,-8.4 0.1,-19.4 2.3,-31c2.9,-15.3 5.9,-31.2 -1.5,-40c-4.3,-5.1 -11.8,-7.5 -22.9,-7.2l-0.7,0l0.2,-0.6c4.9,-18 -11.8,-25.3 -31.1,-31.7c-7.9,7.4 -16.4,11 -25.3,10.8c-21.3,-0.7 -41.4,-22.6 -57.5,-40.1c-3,-3.3 -5.9,-6.4 -8.6,-9.2c-7.6,-1.4 -12.1,-1.1 -13.3,0.8c-1.7,2.6 2.3,8.5 6.6,14.7c4.1,6 8.4,12.2 8.9,17.2l0,0.2l-0.1,0.1c-7.5,12.1 -21.7,9.9 -36.7,7.6c-15.3,-2.4 -31.1,-4.8 -40.9,7.9c-10.6,16.8 -21.9,13.7 -34.9,10.2c-8.8,-2.4 -18.9,-5.2 -29.9,-1.4l-0.3,0.1l-0.2,-0.3c-4.7,-6.2 -8.9,-9.3 -12.7,-9.4c-0.1,0 -0.2,0 -0.3,0c-4.7,0 -8.7,4.4 -12.9,9c-5.9,6.6 -12.7,14 -23.1,10l-0.4,-0.1l0.1,-0.4c4.5,-26.8 -4.7,-47.6 -30.6,-69.5c-14,-8.1 -31.8,-22 -36.8,-41.6c-3.1,-12 -0.8,-24.4 6.8,-36.9l0.2,-0.3l0.3,0c24.2,3.2 31.3,-11.3 39.4,-28.1c4.6,-9.4 9.3,-19.2 17.5,-27.1c-0.3,-10.8 1.4,-17.2 5.5,-20.2c5.6,-4.1 15,-0.8 25.8,3.1l1.4,0.5c3.7,-8.1 7.4,-12.3 11.3,-12.9c5.3,-0.8 10.2,5 15.3,11c5.6,6.6 11.5,13.4 18.5,13.4c4.4,-2.2 7,-4.8 7.8,-8.1c1.8,-6.9 -4.5,-15.7 -11.1,-25.1c-7.7,-10.9 -15.7,-22.2 -13.4,-32.9c1.3,-5.9 5.5,-10.9 13,-15.3l0.2,-0.1l0.2,0.1c31.1,8.3 38.3,-19 44.8,-43c1.2,-4.5 2.3,-8.8 3.6,-12.7c-22.8,-9.1 -20.6,-27 -18.3,-46.1c1.8,-14.9 3.7,-30.2 -6.1,-42.7l-0.2,-0.2l0.1,-0.2c7.1,-24.3 1.9,-43.4 -4.1,-65.5c-2,-7.4 -4.1,-15 -5.8,-23.1l0,-0.2l0.1,-0.2c1.7,-2.5 3.4,-5.1 5.2,-7.8c13.5,-20.6 28.8,-43.9 57.8,-34.3c-0.1,-9.4 2.5,-16.8 7.6,-22c6.7,-6.8 18,-9.9 34.5,-9.7l0.2,0l0.1,0.2c9.7,11 20.6,14.8 30.5,10.4c12.9,-5.6 21.4,-23.3 19.7,-41.2l0,-0.4l0.4,-0.1c5.8,-1.6 12.3,-4.2 19.2,-7c23.2,-9.5 52.1,-21.2 71.8,3.1c7.2,11.2 17.1,7.3 25.8,3.8c5.4,-2.1 10,-4 13.1,-1.8c2.7,2 3.7,7.2 2.9,16.2c-2.5,14.4 0,23 7.3,25.1c11.4,3.3 31.8,-11.3 38.3,-27.4l0.1,-0.1c6.3,-8.2 11.8,-11.9 16.7,-11.5c7.3,0.7 12.3,10.6 17.6,21.1c7,14 14.3,28.4 27.9,25.9l0.2,0l0.2,0.1c10.8,8.5 14.9,18.3 11.5,27.5c-4.2,11.4 -19.3,19.6 -35.3,19.2c0.7,17.9 13.4,27.6 25.7,37c10.9,8.4 22.2,17 24.6,31.3l0,0.1l0,0.1c-2.2,6.8 -2.4,11.7 -0.5,15.2c2.4,4.5 8.1,6.1 14,7.8c7.7,2.2 16.5,4.7 19.7,14.2l0.1,0.2l-0.1,0.2c-3.5,8.1 -4.2,14.4 -2.1,19c3,6.6 11.3,9.4 20.1,12.2c12.8,4.2 26,8.5 25.5,25.3c-0.5,11.7 0.8,18.3 4.2,20.3c3.9,2.4 10.7,-1.6 18.5,-6.2c11.8,-6.9 26.5,-15.6 39.3,-6.8l0.4,0.2l-0.2,0.4c-4.2,9 -3.2,20 -2.2,31.5c1,11.7 2.1,23.7 -2.1,34.9l-0.1,0.1c-11.2,14.8 -15.4,39.1 -9.8,56.5c3.8,12 11.9,20.2 23.3,23.7l0.1,0.1c12.7,9.4 18.1,19.1 16,28.9c-3.9,18.2 -31.6,30.6 -49.3,34.5c-17,10.2 -20.1,24.8 -19.7,35.2c0.7,20.6 15.7,42.9 35.6,53c19.2,13.1 31.7,34 32.5,54.5c0.5,12.3 -2.8,30.1 -21.5,45.1c-16.9,17.6 -27.8,8.4 -39.4,-1.4c-7.6,-6.4 -15.4,-13 -25.4,-12.1c-3.1,3.2 -6.1,2.4 -9,1.6c-2.1,-0.6 -4.2,-1.2 -6.4,-0.3c-7.6,6.7 -16.5,11.9 -25.1,16.9c-16.4,9.6 -31.9,18.6 -37.9,37.2c3,6.4 7.9,12.7 13,19.3c13.9,17.9 28.2,36.4 6.1,58.6l-0.1,0.1c-24.7,15.6 -52.1,19 -81.1,22.7c-3.9,0.5 -7.9,1 -11.9,1.5c-2.8,0.1 -5.4,0.4 -7.7,0.4zm-46,-57.8l0,0c17.6,0.5 20.9,15.2 24,29.4c3.5,16 6.9,31.1 29.7,26.5c4,-0.5 8,-1 11.9,-1.5c28.9,-3.6 56.1,-7 80.6,-22.5c21.4,-21.5 7.4,-39.7 -6.3,-57.2c-5.2,-6.8 -10.2,-13.1 -13.2,-19.7l-0.1,-0.2l0.1,-0.2c6.1,-19.1 21.8,-28.2 38.4,-37.9c8.6,-5 17.5,-10.2 25,-16.8l0.1,-0.1c2.6,-1.1 4.9,-0.4 7.2,0.2c2.9,0.8 5.3,1.5 8.1,-1.4l0.1,-0.1l0.2,0c10.5,-1.1 18.5,5.7 26.3,12.3c11.2,9.5 21.7,18.4 38.1,1.4c18.4,-14.8 21.7,-32.3 21.2,-44.3c-0.8,-20.2 -13.1,-40.8 -32,-53.7c-20.1,-10.2 -35.3,-32.8 -36.1,-53.8c-0.4,-10.7 2.8,-25.7 20.3,-36.2l0.2,-0.1c21.1,-4.6 45.3,-18 48.6,-33.7c2,-9.4 -3.3,-18.8 -15.6,-27.9c-11.7,-3.7 -19.9,-12.1 -23.9,-24.4c-5.7,-17.6 -1.4,-42.3 9.9,-57.4c4.1,-10.9 3,-22.9 2,-34.4c-1,-11.5 -2,-22.5 2.1,-31.7c-12.3,-8 -26.5,0.4 -37.9,7.1c-8.1,4.8 -15.1,8.9 -19.5,6.2c-3.7,-2.2 -5.2,-9 -4.6,-21.2c0.5,-16 -12.4,-20.2 -24.8,-24.3c-9,-2.9 -17.5,-5.7 -20.7,-12.8c-2.2,-4.9 -1.5,-11.3 2,-19.6c-3.1,-8.8 -11.2,-11.1 -19,-13.3c-6.2,-1.7 -12,-3.4 -14.6,-8.3c-2,-3.7 -1.8,-8.9 0.4,-15.8c-2.4,-13.8 -13,-21.9 -24.2,-30.6c-12.6,-9.7 -25.6,-19.6 -26.1,-38.3l0,-0.5l0.5,0c15.8,0.6 30.8,-7.4 34.9,-18.5c3.2,-8.7 -0.7,-18 -11,-26.3c-1,0.2 -2,0.3 -3,0.3c-12.3,0 -19.4,-14.1 -25.8,-26.7c-5.2,-10.2 -10,-19.9 -16.8,-20.5c-4.5,-0.4 -9.7,3.2 -15.7,11c-6.8,16.8 -27.4,31.4 -39.4,27.9c-5.5,-1.6 -11.3,-7.4 -8,-26.2c0.7,-8.5 -0.1,-13.5 -2.5,-15.2c-2.6,-1.9 -7,-0.2 -12.1,1.9c-8.7,3.5 -19.5,7.8 -27,-4.1c-19.1,-23.6 -46.5,-12.5 -70.6,-2.7c-6.8,2.7 -13.1,5.3 -18.9,6.9c1.6,18.2 -7.1,36.1 -20.3,41.8c-10.4,4.5 -21.6,0.7 -31.5,-10.5c-16.1,-0.2 -27,2.8 -33.6,9.4c-5.1,5.1 -7.5,12.5 -7.3,22l0,0.7l-0.7,-0.2c-28.7,-9.9 -43.9,13.3 -57.3,33.7c-1.7,2.7 -3.4,5.2 -5.1,7.6c1.7,8 3.7,15.6 5.7,22.9c6.1,22.2 11.3,41.4 4.2,65.8c9.8,12.8 7.9,28.3 6.1,43.3c-2.3,18.8 -4.4,36.5 18.1,45.2l0.4,0.2l-0.1,0.4c-1.3,4.1 -2.5,8.5 -3.7,13.1c-5.7,21.4 -12.1,45.2 -35,45.2c-3.3,0 -6.8,-0.5 -10.8,-1.5c-7.1,4.2 -11.2,9 -12.4,14.5c-2.2,10.2 5.6,21.4 13.2,32.1c6.7,9.6 13.1,18.6 11.2,25.9c-0.9,3.6 -3.7,6.5 -8.4,8.8l-0.2,0.1c0,0 -0.1,0 -0.1,0c-7.5,0 -13.7,-7.3 -19.3,-13.8c-5,-5.9 -9.7,-11.4 -14.4,-10.7c-3.6,0.5 -7.1,4.7 -10.7,12.7l-0.2,0.4l-2.3,-0.8c-10.5,-3.7 -19.6,-7 -24.8,-3.2c-3.7,2.7 -5.4,9.1 -5,19.6l0,0.2l-0.2,0.2c-8.1,7.9 -12.9,17.6 -17.4,27c-8.3,17.1 -15.5,31.8 -40.2,28.7c-7.3,12.2 -9.5,24.2 -6.5,35.8c4.9,19.3 22.5,33 36.4,41.1c26.2,22.1 35.4,43 31.1,70c9.6,3.4 15.7,-3.3 21.6,-9.9c4.4,-4.9 8.6,-9.5 14,-9.3c4.1,0.2 8.4,3.3 13.3,9.5c11.2,-3.6 21.3,-0.9 30.2,1.5c12.6,3.5 23.6,6.4 33.8,-9.8c10.2,-13.2 26.3,-10.7 41.9,-8.3c14.6,2.2 28.4,4.4 35.6,-7c-0.6,-4.7 -4.9,-11 -8.7,-16.6c-4.7,-6.8 -8.7,-12.6 -6.6,-15.8c1.5,-2.4 6.1,-2.7 14.5,-1.2l0.2,0l0.1,0.1c2.7,2.8 5.6,6 8.7,9.3c16,17.4 35.9,39.1 56.8,39.8c8.8,0.3 17.1,-3.3 24.8,-10.7l0.2,-0.2l0.3,0.1c19.6,6.5 36.8,14 32.2,32.4c11,-0.2 18.6,2.3 23,7.6c7.8,9.2 4.7,25.3 1.7,40.8c-2.1,10.9 -4.2,22.3 -2.4,30.5c2.8,4.7 5.1,10 7.4,15.1c6.9,16.5 13.5,31.8 36,23.4l0,0z" id="XMLID_6_"/>
   </g>
  </g>
  <g display="none" id="trail-path">
   <path d="m705.2,664.1c-2.4,15 -17.3,24.2 -31.3,30.2c-13.9,6 -29.5,11.7 -36.9,25c-3,5.4 -4.4,11.8 -8.4,16.5c-6.8,8 -18.7,8.5 -28.5,12.2c-11.7,4.5 -21,13.9 -32.6,18.5c-16.2,6.5 -34.5,2.8 -51.5,-1.5c-13.5,-3.4 -27.2,-7.3 -38.8,-15.2c-21.1,-14.4 -32.1,-41.2 -30.4,-66.7c1.7,-25.5 15.1,-49.4 33.8,-66.9c10.6,-9.9 23.2,-18.3 30.6,-30.8c15.4,-25.9 4,-58.4 0.2,-88.3c-1.8,-14 -1.8,-28.2 0,-42.2c0.6,-4.6 1.5,-9.4 4.4,-13.1c2.5,-3.1 6.2,-5 9.8,-6.8c11.7,-5.7 23.8,-11 34,-19.1c10.2,-8.2 18.4,-19.8 19,-32.9c0.9,-19.9 -15.9,-36.6 -34,-44.8c-18.1,-8.2 -38.4,-10.9 -56.7,-18.8c-11.3,-4.9 -22.5,-12.8 -25.9,-24.7c-4.1,-14.6 5.5,-30 18.1,-38.5c5.7,-3.8 12.3,-7.1 15.2,-13.3c3.5,-7.7 -0.5,-17.2 -7.2,-22.4c-6.6,-5.2 -15.2,-7.2 -23.5,-8.8c-27,-5.2 -54.4,-8.4 -81.8,-9.4" stroke-miterlimit="10" stroke="#000000" fill="none" id="XMLID_4_"/>
  </g>
  <g display="none" id="camera-path">
   <path d="m710.8,660.8l-99.3,85.7l-133.8,14.9l17,-160.4l0,-7.3l14.5,-89l62.8,-102.7l-111.3,-105.3l34,-52.3l7,0l-115.7,-44" stroke-miterlimit="10" stroke="#000000" fill="none" id="XMLID_2_"/>
  </g>
  <g display="none" id="points">
   <circle cy="200.3" cx="383" fill="#405b54" id="DTU"/>
   <circle cy="244.3" cx="494.7" fill="#405b54" id="CP"/>
   <circle cy="504.7" cx="509.2" fill="#405b54" id="South_Ex"/>
   <circle cy="296.7" cx="460.7" fill="#405b54" id="Parliamnet_Street"/>
   <circle cy="402" cx="572" fill="#405b54" id="JLN"/>
   <circle cy="601" cx="494.7" fill="#405b54" id="HKV"/>
   <circle cy="746.5" cx="611.5" fill="#405b54" id="Saket"/>
   <circle cy="660.8" cx="710.8" fill="#405b54" id="Noida"/>
   <circle cy="761.2" cx="474.7" fill="#405b54" id="Gurgoan"/>
  </g>
 </g>
</svg>